<svg width="104" height="59" viewBox="0 0 104 59" fill="none" xmlns="http://www.w3.org/2000/svg">
<path d="M6.51704 39.9769C-1.75493 34.4626 2.35965 25.3635 8.52297 23.2552C3.2122 16.8426 11.766 12.2268 16.1454 13.0379C16.1454 5.90184 29.7681 4.60425 34.4719 8.65897C34.4719 0.549575 49.8678 -1.48386 54.7446 5.90184C66.3201 -0.468804 82.6873 8.65897 77.4939 15.5836C81.5479 12.502 86.2439 14.5192 88.3528 18.5737C94.3331 16.0557 105.035 20.4623 99.8413 29.118C105.035 30.377 102.842 39.8195 99.8413 39.8195C103.933 45.3277 93.2315 53.0967 89.2892 49.6909C89.2892 56.9736 78.2601 58.2863 72.098 54.232C66.4209 60.5568 54.7445 57.7998 53.4471 53.0967C48.3676 57.6619 45.3435 56.8892 39.8239 53.0967C29.6514 59.0195 11.081 51.9375 15.1723 46.2851C8.52297 47.6884 4.15639 42.3376 6.51704 39.9769Z" fill="white" stroke="black" stroke-width="2" stroke-linecap="round" stroke-linejoin="round"/>
</svg>
